<svg width="63" height="66" viewBox="0 0 63 66" fill="none" xmlns="http://www.w3.org/2000/svg">
<path fill-rule="evenodd" clip-rule="evenodd" d="M26.6 17.1C25.7 15.1 26.6 12.6 28.6 11.7C26.7 7.8 23.7 4.5 19.7 2.1C24.1 3.7 27.5 6.6 29.7 10.5C29.8 10.4 29.9 10.3 29.9 10.2C30.6 9.4 30.8 9 32 8.9C33.3 9 33.6 9.4 34.3 10.3C34.3 10.3 34.3 10.3 34.3 10.4C36.3 6.5 40 3.6 44.2 2C40.4 4.4 37.4 7.7 35.3 11.6C37.5 12.5 38.3 15 37.3 17C35.6 17.9 33.8 19 31.9 20.4C30.3 19.1 28.4 18 26.6 17.1ZM31.7 27.4C32.2 27.2 32.4 26.9 32.4 26.9C43 17.9 48.9 18.5 61.6 22.9C60.1 29.5 55.7 33.8 49.8 36.1C45.4 37.8 41.8 38 38.2 36.2C38.1 35.9 37.9 35.6 37.7 35.4C40.7 36.6 43.4 36.6 47.1 35.2C52 33.5 55.9 29.6 58 24.7C46.3 22.6 42.2 22.2 32.5 29.8C34.7 31.2 36.5 33.1 37.8 35.4C36.8 35 35.9 34.5 34.8 33.9C36 34.9 37.1 35.7 38.2 36.2C39.3 38.3 39.9 40.7 40.1 43.2C40.3 48.9 38 54.2 33.8 57.5C33.6 58.9 32.4 62.5 31.8 63.9C31.3 62.5 30.1 58.9 29.8 57.5C25.7 54.1 23.2 48.8 23.6 43.2C23.7 40.8 24.3 38.4 25.3 36.3C26.5 35.7 27.6 34.9 28.9 33.9C27.8 34.5 26.8 35 25.8 35.4C27.1 33.1 28.9 31.2 31.2 29.8C21.4 22.2 17.6 22.6 5.7 24.7C7.9 29.7 11.8 33.5 16.6 35.2C20.3 36.6 22.8 36.6 25.8 35.4C25.6 35.7 25.5 36 25.3 36.3C21.7 38.1 18.3 37.8 13.8 36.2C7.9 33.9 3.5 29.6 2 23C14.8 18.6 20.5 18 31.1 27C31.1 27 31.3 27.2 31.7 27.4ZM31.1 32C23.7 41.5 24.4 50 31.7 56.6C39.1 50 39.7 41.4 32.4 32C32.1 31.9 31.9 31.5 31.7 31.2C31.6 31.5 31.3 31.8 31.1 32Z" fill="white" stroke="white" stroke-width="0.2" stroke-miterlimit="10"/>
<mask id="mask0_66_131" style="mask-type:alpha" maskUnits="userSpaceOnUse" x="0" y="0" width="63" height="66">
<path d="M63 0H0V66H63V0Z" fill="white"/>
<path fill-rule="evenodd" clip-rule="evenodd" d="M26.6 17.1C25.7 15.1 26.6 12.6 28.6 11.7C26.7 7.8 23.7 4.5 19.7 2.1C24.1 3.7 27.5 6.6 29.7 10.5C29.8 10.4 29.9 10.3 29.9 10.2C30.6 9.4 30.8 9 32 8.9C33.3 9 33.6 9.4 34.3 10.3C34.3 10.3 34.3 10.3 34.3 10.4C36.3 6.5 40 3.6 44.2 2C40.4 4.4 37.4 7.7 35.3 11.6C37.5 12.5 38.3 15 37.3 17C35.6 17.9 33.8 19 31.9 20.4C30.3 19.1 28.4 18 26.6 17.1ZM31.7 27.4C32.2 27.2 32.4 26.9 32.4 26.9C43 17.9 48.9 18.5 61.6 22.9C60.1 29.5 55.7 33.8 49.8 36.1C45.4 37.8 41.8 38 38.2 36.2C38.1 35.9 37.9 35.6 37.7 35.4C40.7 36.6 43.4 36.6 47.1 35.2C52 33.5 55.9 29.6 58 24.7C46.3 22.6 42.2 22.2 32.5 29.8C34.7 31.2 36.5 33.1 37.8 35.4C36.8 35 35.9 34.5 34.8 33.9C36 34.9 37.1 35.7 38.2 36.2C39.3 38.3 39.9 40.7 40.1 43.2C40.3 48.9 38 54.2 33.8 57.5C33.6 58.9 32.4 62.5 31.8 63.9C31.3 62.5 30.1 58.9 29.8 57.5C25.7 54.1 23.2 48.8 23.6 43.2C23.7 40.8 24.3 38.4 25.3 36.3C26.5 35.7 27.6 34.9 28.9 33.9C27.8 34.5 26.8 35 25.8 35.4C27.1 33.1 28.9 31.2 31.2 29.8C21.4 22.2 17.6 22.6 5.7 24.7C7.9 29.7 11.8 33.5 16.6 35.2C20.3 36.6 22.8 36.6 25.8 35.4C25.6 35.7 25.5 36 25.3 36.3C21.7 38.1 18.3 37.8 13.8 36.2C7.9 33.9 3.5 29.6 2 23C14.8 18.6 20.5 18 31.1 27C31.1 27 31.3 27.2 31.7 27.4ZM31.1 32C23.7 41.5 24.4 50 31.7 56.6C39.1 50 39.7 41.4 32.4 32C32.1 31.9 31.9 31.5 31.7 31.2C31.6 31.5 31.3 31.8 31.1 32Z" fill="black"/>
</mask>
<g mask="url(#mask0_66_131)">
<path d="M28.7001 11.6001L29.2001 12.8001C29.5001 12.7001 29.7001 12.4001 29.9001 12.1001C30.0001 11.8001 30.0001 11.4001 29.9001 11.1001L28.7001 11.6001ZM26.6001 17.1001L25.4001 17.6001C25.5001 17.9001 25.7001 18.1001 26.0001 18.2001L26.6001 17.1001ZM19.8001 2.0001L20.2001 0.800098C19.6001 0.600098 18.9001 0.800098 18.6001 1.4001C18.3001 2.0001 18.5001 2.8001 19.1001 3.1001L19.8001 2.0001ZM29.8001 10.4001L28.7001 11.0001C28.9001 11.4001 29.3001 11.6001 29.7001 11.7001C30.1001 11.7001 30.5001 11.5001 30.8001 11.2001L29.8001 10.4001ZM32.0001 8.9001L32.1001 7.6001C32.0001 7.6001 31.9001 7.6001 31.8001 7.6001L32.0001 8.9001ZM34.3001 10.4001L33.3001 11.2001C33.6001 11.5001 34.0001 11.7001 34.4001 11.7001C34.8001 11.7001 35.2001 11.4001 35.4001 11.0001L34.3001 10.4001ZM44.5 2.00003L44.9001 3.1001C45.5001 2.7001 45.6001 2.0001 45.3001 1.4001C45.0001 0.800098 44.3001 0.600098 43.7001 0.800098L44.5 2.00003ZM35.3001 11.6001L34.2001 11.0001C34.0001 11.3001 34.0001 11.7001 34.1001 12.0001C34.2001 12.3001 34.5001 12.6001 34.8001 12.7001L35.3001 11.6001ZM37.0993 16.732L37.9001 18.2001C38.1001 18.1001 38.4001 17.9001 38.5001 17.6001L37.0993 16.732ZM32.0001 20.5001L31.2001 21.5001C31.6001 21.8001 32.3001 21.9001 32.7001 21.5001L32.0001 20.5001ZM32.5001 27.0001L31.7001 26.0001L31.6001 26.1001L32.5001 27.0001ZM31.7001 27.4001L31.1001 28.5001C31.4001 28.7001 31.9001 28.7001 32.2001 28.6001L31.7001 27.4001ZM61.7001 23.0001L62.9001 23.3001C63.0001 22.7001 62.7001 22.0001 62.1001 21.8001L61.7001 23.0001ZM58.0001 24.7001L59.2001 25.2001C59.4001 24.8001 59.3001 24.4001 59.1001 24.1001C58.9001 23.8001 58.6001 23.5001 58.2001 23.5001L58.0001 24.7001ZM32.5001 29.9001L31.7001 28.9001C31.4001 29.2001 31.2001 29.6001 31.2001 30.0001C31.2001 30.4001 31.4001 30.8001 31.8001 31.0001L32.5001 29.9001ZM34.8001 34.0001L35.4001 32.9001C34.8001 32.6001 34.1001 32.7001 33.7001 33.3001C33.3001 33.8001 33.4001 34.6001 33.9001 35.0001L34.8001 34.0001ZM33.7001 57.6001L32.9001 56.6001C32.6001 56.8001 32.5001 57.1001 32.4001 57.4001L33.7001 57.6001ZM31.8042 63.4001L30.6001 64.4001C30.8001 64.9001 31.2042 65.4043 31.8042 65.4043C32.3042 65.4043 32.7001 64.9001 32.9001 64.5001L31.8042 63.4001ZM29.7001 57.6001L30.9001 57.3001C30.8001 57.0001 30.7001 56.8001 30.5001 56.6001L29.7001 57.6001ZM28.8001 34.0001L29.6001 35.0001C30.1001 34.6001 30.2001 33.8001 29.8001 33.3001C29.4001 32.8001 28.7001 32.6001 28.1001 32.9001L28.8001 34.0001ZM31.1001 29.9001L31.8001 31.0001C32.2001 30.8001 32.4001 30.4001 32.4001 30.0001C32.4001 29.6001 32.2001 29.2001 31.9001 28.9001L31.1001 29.9001ZM5.60007 24.7001L5.40007 23.4001C5.00007 23.5001 4.70007 23.7001 4.50007 24.1001C4.30007 24.4001 4.30007 24.9001 4.50007 25.2001L5.60007 24.7001ZM2.00007 23.0001L1.60007 21.8001C1.00007 22.0001 0.600073 22.7001 0.800073 23.3001L2.00007 23.0001ZM30.6 26.5L32.0001 26.1001L31.9001 26.0001L30.6 26.5ZM31.7001 56.6001L30.8001 57.5001C31.3001 57.9001 32.0001 57.9001 32.5001 57.5001L31.7001 56.6001ZM31.1001 32.0001L30.5001 30.9001C30.3001 31.0001 30.2001 31.1001 30.1001 31.2001L31.1001 32.0001ZM32.5001 32.0001L33.5001 31.2001C33.4001 31.0001 33.1001 30.9001 32.9001 30.8001L32.5001 32.0001ZM31.7001 31.2001L32.8001 30.5001C32.5001 30.1001 32.0001 29.8001 31.5001 29.9001C31.0001 30.0001 30.6001 30.3001 30.4001 30.8001L31.7001 31.2001ZM28.1001 10.5001C25.4001 11.8001 24.3001 14.9001 25.4001 17.6001L27.8001 16.6001C27.2001 15.2001 27.8001 13.5001 29.2001 12.8001L28.1001 10.5001ZM19.1001 3.1001C22.8001 5.4001 25.7001 8.5001 27.5001 12.2001L29.8001 11.1001C27.8001 6.9001 24.6001 3.5001 20.5001 0.900098L19.1001 3.1001ZM30.9001 9.8001C28.6001 5.6001 24.8001 2.5001 20.2001 0.800098L19.3001 3.2001C23.4001 4.7001 26.6001 7.4001 28.7001 11.0001L30.9001 9.8001ZM29.0001 9.4001C28.9001 9.5001 28.9001 9.6001 28.8001 9.7001L30.8001 11.2001C30.9001 11.1001 31.0001 11.0001 31.0001 10.9001L29.0001 9.4001ZM31.8001 7.6001C31.1001 7.7001 30.6001 7.9001 30.1001 8.3001C29.6001 8.6001 29.3001 9.1001 29.1001 9.4001L31.2001 10.9001C31.5001 10.5001 31.6001 10.4001 31.6001 10.4001C31.6001 10.4001 31.7001 10.3001 32.2001 10.3001L31.8001 7.6001ZM35.3001 9.6001C35.0001 9.2001 34.6001 8.7001 34.1001 8.3001C33.5001 7.9001 32.9001 7.7001 32.1001 7.6001L31.8001 10.1001C32.3001 10.2001 32.5001 10.2001 32.6001 10.3001C32.7001 10.4001 32.9001 10.5001 33.2001 11.0001L35.3001 9.6001ZM35.3001 9.6001L33.2001 11.1001C33.2001 11.1001 33.2001 11.1001 33.2001 11.2001L35.3001 9.6001ZM43.7001 0.800098C39.3001 2.5001 35.4001 5.6001 33.1001 9.8001L35.4001 11.0001C37.3001 7.4001 40.6001 4.7001 44.6001 3.2001L43.7001 0.800098ZM36.5001 12.2001C38.4001 8.5001 41.3001 5.5001 44.9001 3.1001L45.0001 1.49995L43.7001 0.800098C39.7001 3.4001 36.3001 6.9001 34.2001 11.0001L36.5001 12.2001ZM38.5001 17.6001C39.8001 14.9001 38.7001 11.7001 35.8001 10.4001L34.8001 12.7001C36.3001 13.4001 36.9001 15.0001 36.2001 16.4001L38.5001 17.6001ZM32.7001 21.5001C34.5001 20.2001 36.2001 19.1001 37.9001 18.2001L36.7001 16.0001C34.9001 17.0001 33.1001 18.1001 31.2001 19.5001L32.7001 21.5001ZM26.0001 18.2001C27.7001 19.1001 29.5001 20.2001 31.2001 21.5001L32.8001 19.5001C31.0001 18.0001 29.0001 16.9001 27.2001 15.9001L26.0001 18.2001ZM32.5001 27.0001C31.6001 26.1001 31.6001 26.1001 31.6001 26.1001C31.6001 26.1001 31.5001 26.2001 31.3001 26.3001L32.3001 28.6001C32.7001 28.4001 32.9001 28.3001 33.1001 28.1001C33.2001 28.0001 33.3001 28.0001 33.3001 27.9001L33.4001 27.8001C33.4001 27.9001 33.4001 27.9001 32.5001 27.0001ZM62.1001 21.8001C55.7001 19.6001 50.8001 18.3001 46.1001 18.7001C41.3001 19.2001 37.0001 21.4001 31.6001 26.0001L33.3001 27.9001C38.5001 23.5001 42.4001 21.6001 46.4001 21.2001C50.5001 20.8001 54.9001 22.0001 61.3001 24.2001L62.1001 21.8001ZM50.3001 37.5001C56.5001 35.1001 61.3001 30.3001 62.9001 23.3001L60.4001 22.7001C59.1001 28.8001 55.0001 32.9001 49.4001 35.0001L50.3001 37.5001ZM37.6001 37.5001C41.7001 39.6001 45.6001 39.2001 50.3001 37.5001L49.4001 35.0001C45.2001 36.6001 42.0001 36.8001 38.8001 35.1001L37.6001 37.5001ZM39.4001 35.7001C39.2001 35.4001 39.1001 35.1001 38.9001 34.8001L36.7001 36.1001C36.8001 36.4001 37.0001 36.6001 37.1001 36.9001L39.4001 35.7001ZM46.6001 34.1001C43.2001 35.4001 40.9001 35.4001 38.2001 34.3001L37.3001 36.7001C40.7001 38.0001 43.7001 38.0001 47.6001 36.5001L47.5001 35L46.6001 34.1001ZM56.8001 24.2001C54.8001 28.9001 51.1001 32.5001 46.6001 34.1001L47.6001 36.4001C52.8001 34.5001 57.0001 30.4001 59.2001 25.2001L56.8001 24.2001ZM33.2001 30.9001C38.0001 27.1001 41.2001 25.5001 44.6001 24.9001C48.1001 24.3001 51.8001 24.9001 57.7001 26.0001L58.1001 23.5001C52.3001 22.5001 48.1001 21.8001 44.1001 22.4001C40.1001 23.0001 36.4001 25.0001 31.5001 28.9001L33.2001 30.9001ZM38.9001 34.8001C37.5001 32.4001 35.5001 30.3001 33.2001 28.8001L31.8001 31.0001C33.8001 32.3001 35.5001 34.0001 36.7001 36.1001L38.9001 34.8001ZM38.2001 34.3001C37.3001 34.0001 36.4001 33.5001 35.4001 32.9001L34.1001 35.1001C35.2001 35.7001 36.2001 36.3001 37.3001 36.7001L38.2001 34.3001ZM33.9001 35.0001C35.1001 36.0001 36.4001 36.9001 37.6001 37.5001L38.7001 35.2001C37.7001 34.7001 36.6001 34.0001 35.5001 33.0001L33.9001 35.0001ZM41.3001 43.2001C41.1001 40.6001 40.5001 38.0001 39.3001 35.7001L37.0001 36.8001C38.0001 38.8001 38.6001 41.0001 38.7001 43.3001L41.3001 43.2001ZM34.5001 58.6001C39.1001 55.0001 41.6001 49.3001 41.3001 43.2001L38.7001 43.3001C38.9001 48.6001 36.7001 53.5001 32.8001 56.6001L34.5001 58.6001ZM32.9001 64.5001C33.3001 63.7001 33.7001 62.4001 34.1001 61.2001C34.5001 60.0001 34.9001 58.6001 35.0001 57.8001L32.5001 57.4001C32.4001 58.0001 32.1001 59.1001 31.7001 60.4001C31.3001 61.6001 30.9001 62.8001 30.6001 63.4001L32.9001 64.5001ZM28.5001 57.9001C28.8001 59.4001 30.0001 63.0001 30.6001 64.4001L33.0001 63.5001C32.5001 62.1001 31.3001 58.6001 31.0001 57.3001L28.5001 57.9001ZM22.2001 43.2001C21.9001 49.3001 24.5001 55.0001 28.9001 58.6001L30.5001 56.6001C26.7001 53.5001 24.4001 48.6001 24.7001 43.3001L22.2001 43.2001ZM24.1001 35.8001C23.0001 38.1001 22.3001 40.6001 22.2001 43.2001L24.8001 43.3001C24.9001 41.0001 25.4001 38.8001 26.4001 36.9001L24.1001 35.8001ZM25.8001 37.5001C27.1001 36.9001 28.3001 36.0001 29.6001 34.9001L28.0001 32.9001C26.8001 33.9001 25.7001 34.6001 24.7001 35.1001L25.8001 37.5001ZM28.1001 32.9001C27.0001 33.5001 26.1001 34.0001 25.2001 34.3001L26.1001 36.7001C27.1001 36.3001 28.2001 35.8001 29.3001 35.1001L28.1001 32.9001ZM30.4001 28.8001C27.9001 30.3001 26.0001 32.4001 24.6001 34.9001L26.8001 36.2001C28.0001 34.1001 29.7001 32.3001 31.8001 31.0001L30.4001 28.8001ZM5.80007 26.0001C11.8001 24.9001 15.5001 24.4001 18.9001 24.9001C22.2001 25.4001 25.5001 27.1001 30.3001 30.9001L31.9001 28.9001C26.9001 25.0001 23.3001 23.1001 19.3001 22.4001C15.4001 21.8001 11.2001 22.4001 5.40007 23.5001L5.80007 26.0001ZM17.0001 34.1001C12.6001 32.5001 8.80007 28.9001 6.70007 24.3001L4.40007 25.3001C6.70007 30.6001 10.9001 34.6001 16.0001 36.5001L17.0001 34.1001ZM25.2001 34.3001C23.8001 34.8001 22.6001 35.1001 21.4001 35.1001C20.1001 35.1001 18.7001 34.8001 17.0001 34.1001L16.0001 36.5001C17.9001 37.2001 19.6001 37.6001 21.3001 37.7001C23.0001 37.7001 24.5001 37.4001 26.1001 36.8001L25.2001 34.3001ZM24.6001 34.9001C24.4001 35.2001 24.3001 35.5001 24.1001 35.8001L26.4001 36.9001C26.5001 36.6001 26.7001 36.4001 26.8001 36.1001L24.6001 34.9001ZM13.3001 37.4001C17.9001 39.1001 21.8001 39.5001 25.8001 37.5001L24.7001 35.2001C21.6001 36.7001 18.5001 36.6001 14.2001 35.0001L13.3001 37.4001ZM0.800073 23.3001C2.40007 30.4001 7.20007 35.0001 13.3001 37.4001L14.2001 35.0001C8.70007 32.8001 4.60007 28.8001 3.20007 22.7001L0.800073 23.3001ZM31.9001 26.0001C26.5001 21.4001 22.2001 19.1001 17.5001 18.7001C12.8001 18.3001 8.00007 19.6001 1.60007 21.8001L2.40007 24.2001C8.80007 22.0001 13.2001 20.8001 17.2001 21.2001C21.2001 21.6001 25.0001 23.5001 30.2001 27.9001L31.9001 26.0001ZM32.3001 26.3001C32.2001 26.2001 32.1001 26.2001 32.0001 26.1001C32.0001 26.1001 31.5 25.6 30.6 26.5C29.7 27.4 30.2001 27.9001 30.2001 27.9001C30.2001 27.9001 30.2001 27.9001 30.3001 28.0001C30.3001 28.0001 30.4001 28.1001 30.5001 28.2001C30.7001 28.3001 30.9001 28.5001 31.2001 28.6001L32.3001 26.3001ZM32.6001 55.6001C29.1001 52.5001 27.3001 49.0001 27.2001 45.3001C27.0001 41.5001 28.5001 37.3001 32.1001 32.7001L30.1001 31.1001C26.3001 36.0001 24.4001 40.8001 24.6001 45.3001C24.8001 49.9001 27.0001 54.0001 30.8001 57.4001L32.6001 55.6001ZM31.4001 32.7001C34.9001 37.3001 36.4001 41.5001 36.3001 45.3001C36.1001 49.0001 34.3001 52.5001 30.8001 55.6001L32.5001 57.5001C36.4001 54.0001 38.6001 49.9001 38.8001 45.4001C39.0001 40.9001 37.2001 36.1001 33.4001 31.2001L31.4001 32.7001ZM30.6001 31.8001C30.7001 32.0001 30.8001 32.2001 31.0001 32.4001C31.2001 32.6001 31.5001 32.9001 32.0001 33.1001L32.9001 30.7001C33.0001 30.8001 33.1001 30.8001 33.0001 30.8001C33.0001 30.8001 33.0001 30.7001 32.9001 30.7001C32.9001 30.6001 32.8001 30.6001 32.8001 30.5001L30.6001 31.8001ZM31.7001 33.1001C32.0001 32.9001 32.2001 32.7001 32.4001 32.5001C32.6001 32.3001 32.8001 32.0001 32.9001 31.6001L30.5001 30.9001C30.5001 30.9001 30.5001 30.9001 30.5001 31.0001C30.5001 31.0001 30.5001 31.0001 30.6001 31.0001L31.7001 33.1001Z" fill="white"/>
</g>
</svg>
