<svg width="319" height="87" viewBox="0 0 319 87" fill="none" xmlns="http://www.w3.org/2000/svg">
<g clip-path="url(#clip0_36_24)">
<path d="M318.143 43.0828C318.143 38.3497 315.618 34.2234 311.197 30.704C315.618 27.5487 318.143 23.7866 318.143 19.539C318.143 8.25246 299.199 0 274.192 0C270.278 0 265.603 0.364079 261.816 0.849519L259.415 6.91751C262.826 6.31071 269.267 5.70392 274.192 5.70392C295.158 5.70392 312.334 12.2573 312.334 19.539C312.334 22.3303 310.061 25.0001 306.019 27.306C301.22 24.7574 295.283 22.9371 288.59 21.7233L291.874 13.4709H285.938L282.907 20.9953C280.128 20.7525 277.098 20.6312 274.192 20.6312C257.395 20.6312 246.154 24.1506 246.154 30.5827C246.154 36.5294 257.016 39.5633 274.192 39.5633C274.697 39.5633 275.077 39.5633 275.456 39.5633L272.425 47.209C256.131 47.4517 246.154 50.3643 246.154 55.9469C246.154 61.1653 253.352 64.5634 264.973 65.6557L261.941 73.1801H267.877L270.783 66.0197C271.918 66.0197 273.055 66.0197 274.192 66.0197C286.821 66.0197 298.062 63.4711 306.019 59.1023C309.935 61.2868 312.334 63.8353 312.334 66.5052C312.334 74.0294 295.283 80.8256 274.192 80.8256C268.509 80.8256 264.088 80.4616 259.289 79.7335L257.268 84.8305C262.446 86.0442 269.646 86.4082 274.319 86.4082C299.326 86.4082 318.27 78.0345 318.27 66.3839C318.27 62.2576 315.744 58.6168 311.323 55.4614C315.618 52.1848 318.143 47.9372 318.143 43.0828ZM251.964 30.4613C251.964 28.2769 263.078 26.2137 274.065 26.2137C276.339 26.2137 278.486 26.3351 280.633 26.4564L278.74 31.1895H284.674L286.316 27.1847C290.991 27.9127 295.158 29.005 298.821 30.34C292.126 32.5244 283.539 33.8594 274.065 33.8594C263.078 33.8594 251.964 32.1603 251.964 30.4613ZM274.192 60.5586C263.204 60.5586 252.09 58.2527 252.09 56.0682C252.09 54.7334 260.679 53.2769 270.151 53.0343L268.256 57.8887H274.192L276.212 53.0343C284.928 53.1556 292.884 54.4906 299.072 56.4324C292.253 58.981 283.664 60.5586 274.192 60.5586ZM305.767 52.7916C298.694 49.6362 289.222 47.6945 278.36 47.3304L281.517 39.3205C291.116 38.7138 299.452 36.6507 305.767 33.8594C309.808 36.5294 312.209 39.806 312.209 43.2041C312.209 46.6022 309.808 50.0003 305.767 52.7916Z" fill="#0068FF"/>
<path d="M21.8495 37.4996C24.8807 35.5579 26.1436 32.888 26.1436 30.2182C26.1436 24.5143 21.8495 20.3879 14.1453 20.3879H3.41004C1.51557 20.5094 0 21.8442 0 23.6647V52.6697C0 54.6115 1.51557 55.9464 3.41004 55.9464H15.1557C23.1124 55.9464 27.9118 51.5775 27.9118 45.8736C27.7855 42.2327 25.891 39.1987 21.8495 37.4996ZM5.93599 25.4851H13.8927C17.9343 25.4851 20.0813 27.7909 20.0813 30.5822C20.0813 33.252 17.9343 35.5579 13.8927 35.5579H5.93599V25.4851ZM15.282 50.9707H5.93599V40.4124H15.282C19.4498 40.4124 21.8495 42.7182 21.8495 45.6308C21.8495 48.6649 19.4498 50.9707 15.282 50.9707Z" fill="#0068FF"/>
<path d="M62.518 50.2424C60.6235 50.9706 58.6027 51.456 56.2031 51.456C51.6563 51.456 49.8883 48.6647 49.8883 44.6598V30.4607H44.2048V44.6598C44.2048 52.5482 49.1304 56.3103 56.3293 56.3103C59.7394 56.3103 63.4021 55.5823 66.9384 53.5192C67.8225 53.0337 68.454 51.8202 68.454 50.6064V30.4607H62.518V50.2424Z" fill="#0068FF"/>
<path d="M37.2584 48.6647V20.752H31.3223V49.3928C31.3223 53.8831 33.9747 56.3104 38.5213 56.3104C39.6579 56.3104 41.5525 56.0676 41.5525 56.0676V51.2132C40.921 51.2132 40.2894 51.3345 39.7843 51.3345C38.0161 51.3345 37.2584 50.2423 37.2584 48.6647Z" fill="#0068FF"/>
<path d="M84.9983 30.2188C77.2941 30.2188 72.1158 35.4372 72.1158 43.2041C72.1158 51.6994 77.0416 56.4324 85.6298 56.4324C88.9135 56.4324 92.5762 55.7042 94.8495 54.3694V49.6363C92.1973 50.9713 88.9135 51.6993 85.6298 51.6993C81.2093 51.6993 78.6835 49.7576 78.052 45.9955H94.218C95.6072 45.9955 96.4914 44.9032 96.4914 43.3256V41.6266C96.6176 34.7089 91.9447 30.2188 84.9983 30.2188ZM77.9256 41.3838C78.3045 37.1362 80.7041 34.8304 84.872 34.8304C88.7872 34.8304 91.1869 37.0149 91.1869 41.3838H77.9256Z" fill="#0068FF"/>
<path d="M169.996 30.2188C165.577 30.2188 161.787 31.675 159.387 33.0099C158.503 33.4954 157.872 34.7089 157.872 35.9227V55.947H163.681V36.2867C165.323 35.5585 167.724 35.0731 169.744 35.0731C173.658 35.0731 176.311 37.0149 176.311 41.8693V55.947H182.247V41.8693C182.12 34.8304 178.206 30.2188 169.996 30.2188Z" fill="#0068FF"/>
<path d="M204.602 30.4607L198.036 40.7764H196.645L190.205 30.4607H184.142L192.099 43.2035L184.648 55.9463H190.836L196.645 46.2376H198.036L203.972 55.9463H210.287L202.708 43.2035L210.792 30.4607H204.602Z" fill="#0068FF"/>
<path d="M121.751 37.4996C124.782 35.5579 126.045 32.888 126.045 30.2182C126.045 24.5143 121.625 20.3879 114.047 20.3879H103.312C101.291 20.3879 99.9017 21.7229 99.9017 23.5433V52.5483C99.9017 54.4901 101.291 55.8251 103.312 55.8251H115.057C122.888 55.8251 127.687 51.456 127.687 45.7521C127.687 42.2327 125.666 39.1987 121.751 37.4996ZM105.838 25.4851H113.668C117.71 25.4851 119.857 27.7909 119.857 30.5822C119.857 33.252 117.71 35.5579 113.668 35.5579H105.711V25.4851H105.838ZM115.184 50.9707H105.838V40.4124H115.184C119.352 40.4124 121.625 42.7182 121.625 45.6308C121.625 48.6649 119.352 50.9707 115.184 50.9707Z" fill="#0068FF"/>
<path d="M142.843 30.2188C135.139 30.2188 129.961 35.4372 129.961 43.2041C129.961 51.6994 134.886 56.4324 143.475 56.4324C146.758 56.4324 150.421 55.7042 152.694 54.3694V49.6363C150.042 50.9713 146.758 51.6993 143.475 51.6993C139.054 51.6993 136.528 49.7576 135.897 45.9955H152.063C153.452 45.9955 154.336 44.9032 154.336 43.3256V41.6266C154.589 34.7089 149.916 30.2188 142.843 30.2188ZM135.897 41.3838C136.276 37.1362 138.675 34.8304 142.843 34.8304C146.758 34.8304 149.158 37.0149 149.158 41.3838H135.897Z" fill="#0068FF"/>
</g>
<defs>
<clipPath id="clip0_36_24">
<rect width="318.27" height="86.4082" fill="white"/>
</clipPath>
</defs>
</svg>
